<?xml version="1.0" encoding="utf-8"?><svg viewBox="0 0 1158 720" xmlns="http://www.w3.org/2000/svg" xmlns:xlink="http://www.w3.org/1999/xlink"><style>:root>svg{display:none}:root>svg:target{display:block}</style><svg fill="none" viewBox="0 0 37 37" id="arrow_right" xmlns="http://www.w3.org/2000/svg"><g clip-path="url(#aa)"><path d="M4.625 16.958H26.47l-5.519-5.534 2.174-2.174 9.25 9.25-9.25 9.25-2.174-2.174 5.52-5.534H4.624v-3.084Z" fill="#3670C7"/></g><defs><clipPath id="aa"><path fill="#fff" transform="matrix(-1 0 0 1 37 0)" d="M0 0h37v37H0z"/></clipPath></defs></svg><svg fill="none" viewBox="0 0 24 24" id="bell" xmlns="http://www.w3.org/2000/svg"><path d="M19 13.586V10c0-3.217-2.185-5.927-5.145-6.742A1.99 1.99 0 0 0 12 2a1.99 1.99 0 0 0-1.855 1.258C7.185 4.074 5 6.783 5 10v3.586l-1.707 1.707A.996.996 0 0 0 3 16v2a1 1 0 0 0 1 1h16a1 1 0 0 0 1-1v-2a.996.996 0 0 0-.293-.707L19 13.586ZM19 17H5v-.586l1.707-1.707A.996.996 0 0 0 7 14v-4c0-2.757 2.243-5 5-5s5 2.243 5 5v4c0 .266.105.52.293.707L19 16.414V17Zm-7 5a2.98 2.98 0 0 0 2.818-2H9.182A2.98 2.98 0 0 0 12 22Z" fill="#3670C7"/></svg><svg fill="none" viewBox="0 0 24 24" id="burger-clear_24px" xmlns="http://www.w3.org/2000/svg"><g clip-path="url(#ca)"><path d="M19 6.41 17.59 5 12 10.59 6.41 5 5 6.41 10.59 12 5 17.59 6.41 19 12 13.41 17.59 19 19 17.59 13.41 12 19 6.41Z" fill="#fff"/></g><defs><clipPath id="ca"><path fill="#fff" d="M0 0h24v24H0z"/></clipPath></defs></svg><svg fill="none" viewBox="0 0 24 24" id="burger_24px" xmlns="http://www.w3.org/2000/svg"><g clip-path="url(#da)"><path d="M3 18h6v-2H3v2ZM3 6v2h18V6H3Zm0 7h12v-2H3v2Z" fill="#fff"/></g><defs><clipPath id="da"><path fill="#fff" d="M0 0h24v24H0z"/></clipPath></defs></svg><svg fill="none" viewBox="0 0 24 24" id="comment" xmlns="http://www.w3.org/2000/svg"><g clip-path="url(#ea)"><path d="M20 2H4c-1.1 0-1.99.9-1.99 2L2 22l4-4h14c1.1 0 2-.9 2-2V4c0-1.1-.9-2-2-2ZM6 9h12v2H6V9Zm8 5H6v-2h8v2Zm4-6H6V6h12v2Z" fill="#8F8F8F"/></g><defs><clipPath id="ea"><path fill="#fff" d="M0 0h24v24H0z"/></clipPath></defs></svg><svg fill="none" viewBox="0 0 30 30" id="delete" xmlns="http://www.w3.org/2000/svg"><g clip-path="url(#fa)"><path d="m19.021 5.354.147.146h4.082V7H6.75V5.5h4.082l.147-.146 1.103-1.104h5.836l1.103 1.104ZM10 25.75c-1.099 0-2-.901-2-2V9.25h14v14.5c0 1.099-.901 2-2 2H10Z" fill="#C9C9C9" stroke="#C9C9C9"/></g><defs><clipPath id="fa"><path fill="#fff" d="M0 0h30v30H0z"/></clipPath></defs></svg><svg fill="none" viewBox="0 0 362 362" id="error" xmlns="http://www.w3.org/2000/svg"><g filter="url(#ga)"><path fill="#F2F0F9" d="M6 6h350v350H6z"/><path d="m307 32 20 20M307 52l20-20" stroke="#6E6893" stroke-width="3" stroke-linecap="round"/><path d="m136 115 90 90M136 205l90-90" stroke="#D80101" stroke-width="3" stroke-linecap="round"/><path d="M55.668 242.909h2.691v4.219c0 .503.088.908.262 1.214.175.303.446.522.812.659.371.132.846.198 1.426.198.204 0 .445-.007.722-.019.277-.017.563-.041.856-.071.299-.029.58-.066.844-.108a4.82 4.82 0 0 0 .659-.147v2.186a4.858 4.858 0 0 1-.671.16c-.265.042-.544.081-.838.115-.294.029-.58.053-.856.07a11.97 11.97 0 0 1-.716.026c-1.053 0-1.97-.15-2.749-.448-.78-.302-1.383-.769-1.809-1.4-.422-.63-.633-1.442-.633-2.435v-4.219Zm7.792 0h2.704V256H63.46v-13.091Zm6.743 2.282v-2.282h10.751v2.282h-4.007V256H74.21v-10.809h-4.008Zm25.754 4.264c0 1.427-.27 2.642-.812 3.643-.537 1.001-1.27 1.766-2.199 2.295-.924.524-1.964.786-3.119.786-1.163 0-2.207-.264-3.132-.793-.925-.528-1.655-1.293-2.192-2.294-.537-1.002-.806-2.214-.806-3.637 0-1.428.269-2.643.805-3.644.538-1.001 1.268-1.764 2.193-2.288.925-.529 1.969-.793 3.132-.793 1.155 0 2.195.264 3.12.793.928.524 1.661 1.287 2.198 2.288.541 1.001.812 2.216.812 3.644Zm-2.806 0c0-.925-.138-1.705-.415-2.34-.273-.635-.659-1.116-1.157-1.445-.5-.328-1.083-.492-1.752-.492s-1.253.164-1.751.492c-.499.329-.887.81-1.164 1.445-.272.635-.409 1.415-.409 2.34 0 .924.137 1.704.41 2.339.276.635.664 1.117 1.163 1.445.498.328 1.082.492 1.751.492.67 0 1.253-.164 1.752-.492.498-.328.884-.81 1.157-1.445.276-.635.415-1.415.415-2.339Zm12.722-1.081v2.161h-5.97v-2.161h5.97Zm3.128-3.183v-2.282h10.752v2.282h-4.008V256h-2.736v-10.809h-4.008Zm25.755 4.264c0 1.427-.271 2.642-.812 3.643-.537 1.001-1.27 1.766-2.199 2.295-.925.524-1.965.786-3.119.786-1.164 0-2.208-.264-3.133-.793-.924-.528-1.655-1.293-2.192-2.294-.537-1.002-.805-2.214-.805-3.637 0-1.428.268-2.643.805-3.644.537-1.001 1.268-1.764 2.192-2.288.925-.529 1.969-.793 3.133-.793 1.154 0 2.194.264 3.119.793.929.524 1.662 1.287 2.199 2.288.541 1.001.812 2.216.812 3.644Zm-2.807 0c0-.925-.138-1.705-.415-2.34-.273-.635-.658-1.116-1.157-1.445-.499-.328-1.082-.492-1.751-.492-.67 0-1.253.164-1.752.492-.498.329-.886.81-1.163 1.445-.273.635-.409 1.415-.409 2.34 0 .924.136 1.704.409 2.339.277.635.665 1.117 1.163 1.445.499.328 1.082.492 1.752.492.669 0 1.252-.164 1.751-.492.499-.328.884-.81 1.157-1.445.277-.635.415-1.415.415-2.339Zm23.751-6.546V256h-2.735v-10.841h-5.293V256h-2.736v-13.091H155.7Zm16.465 6.546c0 1.427-.27 2.642-.812 3.643-.536 1.001-1.269 1.766-2.198 2.295-.925.524-1.965.786-3.12.786-1.163 0-2.207-.264-3.132-.793-.925-.528-1.655-1.293-2.192-2.294-.537-1.002-.806-2.214-.806-3.637 0-1.428.269-2.643.806-3.644.537-1.001 1.267-1.764 2.192-2.288.925-.529 1.969-.793 3.132-.793 1.155 0 2.195.264 3.12.793.929.524 1.662 1.287 2.198 2.288.542 1.001.812 2.216.812 3.644Zm-2.806 0c0-.925-.138-1.705-.415-2.34-.273-.635-.659-1.116-1.157-1.445-.499-.328-1.083-.492-1.752-.492s-1.253.164-1.751.492c-.499.329-.886.81-1.163 1.445-.273.635-.41 1.415-.41 2.34 0 .924.137 1.704.41 2.339.277.635.664 1.117 1.163 1.445.498.328 1.082.492 1.751.492.669 0 1.253-.164 1.752-.492.498-.328.884-.81 1.157-1.445.277-.635.415-1.415.415-2.339Zm7.181-6.546h2.703v10.867h3.759v-10.867h2.691v10.867h3.714v-10.867h2.691V256H176.54v-13.091ZM195.985 256v-2.224l.371-.032c.477-.039.863-.22 1.157-.544.294-.328.513-.85.658-1.566.149-.72.245-1.687.288-2.902l.217-5.823h8.885V256h-2.691v-10.873h-3.624l-.205 4.558c-.068 1.466-.243 2.663-.524 3.592-.277.929-.72 1.615-1.33 2.058-.605.443-1.434.665-2.486.665h-.716Zm27.688-6.545c0 1.427-.271 2.642-.812 3.643-.537 1.001-1.27 1.766-2.199 2.295-.925.524-1.964.786-3.119.786-1.164 0-2.208-.264-3.132-.793-.925-.528-1.656-1.293-2.193-2.294-.537-1.002-.805-2.214-.805-3.637 0-1.428.268-2.643.805-3.644.537-1.001 1.268-1.764 2.193-2.288.924-.529 1.968-.793 3.132-.793 1.155 0 2.194.264 3.119.793.929.524 1.662 1.287 2.199 2.288.541 1.001.812 2.216.812 3.644Zm-2.806 0c0-.925-.139-1.705-.416-2.34-.273-.635-.658-1.116-1.157-1.445-.498-.328-1.082-.492-1.751-.492-.669 0-1.253.164-1.752.492-.498.329-.886.81-1.163 1.445-.273.635-.409 1.415-.409 2.34 0 .924.136 1.704.409 2.339.277.635.665 1.117 1.163 1.445.499.328 1.083.492 1.752.492s1.253-.164 1.751-.492c.499-.328.884-.81 1.157-1.445.277-.635.416-1.415.416-2.339ZM233.489 256v-13.091h2.768v5.401h5.618v-5.401h2.762V256h-2.762v-5.408h-5.618V256h-2.768Zm15.23 0v-13.091h8.821v2.282h-6.054v3.119h5.6v2.282h-5.6v3.126h6.079V256h-8.846Zm18.289-10.809v-2.282h10.751v2.282h-4.008V256h-2.736v-10.809h-4.007ZM281.986 256h-2.966l4.52-13.091h3.566L291.619 256h-2.966l-3.279-10.099h-.102L281.986 256Zm-.185-5.146h7.006v2.161h-7.006v-2.161ZM302.915 256l-4.206-5.58h-.946V256h-2.768v-13.091h2.768v5.229h.556l4.346-5.229h3.446l-5.108 6.073 5.344 7.018h-3.432Z" fill="#6E6893"/></g><defs><filter id="ga" x="0" y="0" width="362" height="362" filterUnits="userSpaceOnUse" color-interpolation-filters="sRGB"><feFlood flood-opacity="0" result="BackgroundImageFix"/><feColorMatrix in="SourceAlpha" values="0 0 0 0 0 0 0 0 0 0 0 0 0 0 0 0 0 0 127 0" result="hardAlpha"/><feOffset/><feGaussianBlur stdDeviation="3"/><feComposite in2="hardAlpha" operator="out"/><feColorMatrix values="0 0 0 0 0 0 0 0 0 0 0 0 0 0 0 0 0 0 0.25 0"/><feBlend in2="BackgroundImageFix" result="effect1_dropShadow_104_344"/><feBlend in="SourceGraphic" in2="effect1_dropShadow_104_344" result="shape"/></filter></defs></svg><svg fill="none" viewBox="0 0 36 36" id="favorite" xmlns="http://www.w3.org/2000/svg"><g clip-path="url(#ha)"><path d="m18 32.025-2.175-1.98C8.1 23.04 3 18.42 3 12.75 3 8.13 6.63 4.5 11.25 4.5c2.61 0 5.115 1.215 6.75 3.135 1.635-1.92 4.14-3.135 6.75-3.135 4.62 0 8.25 3.63 8.25 8.25 0 5.67-5.1 10.29-12.825 17.31L18 32.025Z" fill="#2D2D2D"/></g><defs><clipPath id="ha"><path fill="#fff" d="M0 0h36v36H0z"/></clipPath></defs></svg><svg fill="none" viewBox="0 0 1158 720" id="fire" xmlns="http://www.w3.org/2000/svg"><g opacity=".3"><path d="M404.358 1061.64c-322.162 0-362.77-211.752-348.38-318.488C77.75 581.656 256.296 496.435 282.423 447.096c26.129-49.364 0-121.129 0-121.129S469.68 451.581 386.939 581.656C304.2 711.755 452.261 868.767 482.743 774.55c30.485-94.192 4.356-165.982 4.356-165.982s108.868 31.397 126.287 197.379c17.418 165.982-165.483 255.693-209.028 255.693" fill="#FC0001"/><path d="M643.878 294.535c-163.737 94.88-104.515 210.838-13.066 300.567 112.822 110.675 156.773 287.096-87.094 363.354-188.255 58.874-108.869 112.154-108.869 112.154s428.397 94.27 579.181-174.967C1144.68 662.379 905.162 415.67 905.162 415.67s30.484 179.432-100.157 165.987c-112.495-11.596-115.102-119.603-65.322-215.328C805.005 240.729 683.07 151 683.07 151s30.484 103.174-39.192 143.535" fill="#FC0001"/><path d="M334.685 496.429c-352.738 161.489-317.9 493.432-113.226 569.691 204.675 76.27 365.798-49.34 370.154-170.451 4.354-121.11-34.839-197.372-34.839-197.372s-60.966 206.337-182.899 103.18c-121.933-103.18-39.19-305.048-39.19-305.048M710.273 608.581c-161.125-62.789-154.468-211.767-116.489-250.085 52.257-52.713 78.924-43.604 103.426-70.641 30.481-33.659 13.063-97.574 13.063-97.574s78.388 88.596 13.065 158.139c-56.331 59.936-69.675 179.417-13.065 260.161" fill="#FB6D01"/><path d="M930.567 462.017c226.443 231.019 103.063 527.838-60.239 583.903-163.305 56.07-189.434 53.84-252.577 17.94-63.145-35.87 17.419-186.145 132.82-213.078 115.401-26.907 58.79-53.815 4.356-116.624-54.438-62.809-34.115-183.919-34.115-183.919s83.467 94.962 161.856 58.325c74.744-34.946 47.899-146.547 47.899-146.547" fill="#FB6D01"/><path d="M772.326 637.748C730.957 776.817 944.34 803.735 916.033 911.387c-28.307 107.653-235.156 134.573-235.156 134.573s253.48 50.98 330.963-116.627c65.32-141.318-54.438-208.603-137.178-215.327-97.891-7.965-102.336-76.258-102.336-76.258" fill="#EFA204"/><path d="M957.416 508.384c148.064 189.147 51.314 310.91-10.161 250.452-61.473-60.433 50.079-144.288 10.161-250.452ZM265.002 563.727C27.67 740.909 45.814 922.604 163.392 1021.29c117.578 98.68 317.17 96.43 365.072-22.43 47.902-118.885-28.306-139.066-172.013-170.471-143.704-31.405-91.449-264.662-91.449-264.662ZM667.815 678.119c115.398 91.957 154.589 192.884 111.045 282.615-43.549 89.706-235.156 125.596-204.674 20.167 30.485-105.401 124.11-125.591 124.11-204.103 0-78.489-30.481-98.679-30.481-98.679Z" fill="#EFA204"/><path d="M201.868 646.687c-158.947 181.68-82.013 385.023 18.146 411.953 100.159 26.93 249.673-30.64 260.559-93.446 10.888-62.804-6.532-94.218-6.532-94.218s23.954 31.414-58.788 76.267c-82.741 44.853-100.159 33.634-100.159 33.634s43.545-62.804-54.435-170.46c-97.983-107.657-58.791-163.73-58.791-163.73M532.828 705.01c67.498 96.434 28.307 195.147 28.307 195.147s0-38.137-32.662-76.273c-32.66-38.136 4.355-118.874 4.355-118.874ZM933.463 971.922c105.907-87.272 74.037-177.185-8.71-217.572-82.738-40.364-89.272-29.16-89.272-29.16s65.239 72.899 82.74 107.661c30.484 60.569 10.886 139.071-65.32 179.439-76.211 40.38 26.128 4.5 80.562-40.368ZM687.42 316.992c-82.74 51.579-132.822 85.228-113.226 165.987 25.051 103.209 113.226 98.688 113.226 98.688s-56.612-56.074-50.082-125.608c6.533-69.533 50.082-139.067 50.082-139.067Z" fill="#FACF67"/><path d="M815.879 523.351c67.498-67.281 17.161-95.291 6.531-148.043-7.981-39.628 19.597-80.736 19.597-80.736s-70.463 71.799-41.37 118.117c47.904 76.268 15.242 110.662 15.242 110.662Z" fill="#FC0001"/><path d="M386.937 363.359c17.419 53.839 16.564 81.637-23.226 130.077-79.838 97.206-17.419 162.998-18.871 158.503-1.451-4.47-7.825-95.348 42.097-136.053 69.674-56.827 0-152.527 0-152.527" fill="#FCE8B3"/><path d="M430.493 660.895c-27.58 59.822-2.903 91.212-2.903 91.212l2.903-91.212Z" fill="#FC0001"/><path d="M986.452 622.014c65.318 68.785 78.388 134.584 24.678 234.751 7.26-46.343-37.74-80.736-37.74-80.736s42.39-37.357 40.64-73.279c-1.45-29.9-27.578-80.736-27.578-80.736" fill="#FCE8B3"/><path d="M959.586 752.882c28.305-75.522-24.677-103.188-65.322-130.107-40.644-26.894-37.741-97.93-37.741-97.93s-51.528 51.595-21.047 127.092c22.336 55.333 124.11 100.945 124.11 100.945Z" fill="#FACF67"/></g><g filter="url(#ia)"><circle cx="579" cy="492" r="229" fill="red"/></g><defs><filter id="ia" x="0" y="-87" width="1158" height="1158" filterUnits="userSpaceOnUse" color-interpolation-filters="sRGB"><feFlood flood-opacity="0" result="BackgroundImageFix"/><feBlend in="SourceGraphic" in2="BackgroundImageFix" result="shape"/><feGaussianBlur stdDeviation="175" result="effect1_foregroundBlur_102_863"/></filter></defs></svg><svg fill="none" viewBox="0 0 18 18" id="keyboard_arrow_right" xmlns="http://www.w3.org/2000/svg"><g clip-path="url(#ja)"><path d="M6.442 12.443 9.877 9 6.442 5.558 7.5 4.5 12 9l-4.5 4.5-1.058-1.057Z" fill="#525252"/></g><defs><clipPath id="ja"><path fill="#fff" d="M0 0h18v18H0z"/></clipPath></defs></svg><svg fill="none" viewBox="0 0 24 24" id="keyboard_backspace" xmlns="http://www.w3.org/2000/svg"><g clip-path="url(#ka)"><path d="M21 11H6.83l3.58-3.59L9 6l-6 6 6 6 1.41-1.41L6.83 13H21v-2Z" fill="#2D2D2D"/></g><defs><clipPath id="ka"><path fill="#fff" d="M0 0h24v24H0z"/></clipPath></defs></svg><svg fill="none" viewBox="0 0 37 37" id="left" xmlns="http://www.w3.org/2000/svg"><g clip-path="url(#la)"><path d="M32.375 16.958H10.53l5.519-5.534-2.174-2.174-9.25 9.25 9.25 9.25 2.174-2.174-5.52-5.534h21.846v-3.084Z" fill="#8F8F8F"/></g><defs><clipPath id="la"><path fill="#fff" d="M0 0h37v37H0z"/></clipPath></defs></svg><svg fill="none" viewBox="0 0 98 66" id="logo" xmlns="http://www.w3.org/2000/svg"><path fill-rule="evenodd" clip-rule="evenodd" d="M48.76.936a.7.7 0 0 0-1.4.013l.083 9.013a40.226 40.226 0 0 0-4.521.444c-.65.1-1.293.216-1.928.345L38.67 2.658a.7.7 0 0 0-1.346.386l2.3 8.009a45.736 45.736 0 0 0-7.277 2.4l-4.454-6.154a.7.7 0 0 0-1.134.82l4.278 5.912a48.173 48.173 0 0 0-6.713 3.762l-4.066-3.826a.7.7 0 1 0-.96 1.02l3.85 3.623a38.823 38.823 0 0 0-3.583 2.899.7.7 0 0 0 .948 1.03c4.543-4.174 12.77-9.222 22.623-10.75 9.82-1.523 21.283.443 32.395 10.324a.7.7 0 0 0 .93-1.046 51.906 51.906 0 0 0-3.793-3.072l3.798-3.433a.7.7 0 1 0-.94-1.039L71.5 17.164a43.605 43.605 0 0 0-6.225-3.584l4.011-5.82a.7.7 0 0 0-1.153-.795l-4.158 6.033a38.347 38.347 0 0 0-7.494-2.331l2.318-8.233a.7.7 0 1 0-1.347-.38l-2.354 8.361a37.863 37.863 0 0 0-6.254-.485L48.76.936Zm-27.855 28.06.133-.118-.134-.119c4.567-5.124 12.735-11.28 22.43-13.056 9.628-1.764 20.663.811 31.032 12.744l.429.363-.058.068.058.067-.428.364c-10.37 11.933-21.405 14.507-31.032 12.744-9.696-1.777-17.864-7.932-22.43-13.056Zm22.682 11.68c-8.8-1.613-16.352-7.014-20.89-11.798 4.538-4.785 12.09-10.186 20.89-11.798 8.982-1.645 19.36.637 29.294 11.798-9.934 11.16-20.312 13.443-29.294 11.797Zm13.311-11.538a8.924 8.924 0 1 1-17.848 0 8.924 8.924 0 0 1 17.848 0Zm1.4 0c0 5.702-4.622 10.324-10.324 10.324-5.701 0-10.324-4.622-10.324-10.324s4.623-10.324 10.324-10.324c5.702 0 10.324 4.622 10.324 10.324Zm-10.497 4.066a4.066 4.066 0 1 0 0-8.131 4.066 4.066 0 0 0 0 8.13Zm0 1.4a5.466 5.466 0 1 0 0-10.931 5.466 5.466 0 0 0 0 10.93Z" fill="#FF9533"/><path d="M9.552 56.176c.64.203 1.141.544 1.504 1.024.363.47.544 1.05.544 1.744 0 .981-.384 1.739-1.152 2.272-.757.523-1.867.784-3.328.784H1.328V50.8H6.8c1.365 0 2.41.261 3.136.784.736.523 1.104 1.232 1.104 2.128a2.69 2.69 0 0 1-.4 1.456 2.689 2.689 0 0 1-1.088 1.008Zm-5.648-3.424v2.64H6.48c.64 0 1.125-.112 1.456-.336.33-.224.496-.555.496-.992 0-.437-.165-.763-.496-.976-.33-.224-.816-.336-1.456-.336H3.904Zm3.024 7.296c.683 0 1.195-.112 1.536-.336.352-.224.528-.57.528-1.04 0-.928-.688-1.392-2.064-1.392H3.904v2.768h3.024Zm6.458-6.656h2.496V62h-2.496v-8.608Zm1.248-1.2c-.458 0-.832-.133-1.12-.4a1.297 1.297 0 0 1-.432-.992c0-.395.144-.725.432-.992.288-.267.662-.4 1.12-.4.459 0 .832.128 1.12.384.288.256.432.576.432.96 0 .416-.144.763-.432 1.04-.288.267-.661.4-1.12.4Zm12.445 1.2v7.168c0 1.579-.41 2.752-1.232 3.52-.822.768-2.021 1.152-3.6 1.152a9.002 9.002 0 0 1-2.368-.304c-.747-.203-1.366-.496-1.856-.88l.992-1.792c.363.299.821.533 1.376.704.555.181 1.11.272 1.664.272.864 0 1.498-.197 1.904-.592.416-.384.624-.97.624-1.76v-.368c-.65.715-1.557 1.072-2.72 1.072-.79 0-1.515-.17-2.176-.512a4.036 4.036 0 0 1-1.552-1.472c-.384-.63-.576-1.355-.576-2.176 0-.821.192-1.547.576-2.176a3.92 3.92 0 0 1 1.552-1.456 4.558 4.558 0 0 1 2.176-.528c1.248 0 2.197.41 2.848 1.232v-1.104h2.368Zm-4.72 6.144c.661 0 1.2-.192 1.616-.576.426-.395.64-.907.64-1.536 0-.63-.213-1.136-.64-1.52-.416-.395-.955-.592-1.616-.592-.662 0-1.206.197-1.632.592-.427.384-.64.89-.64 1.52s.213 1.141.64 1.536c.427.384.97.576 1.632.576Zm19.974-3.36c.64.203 1.142.544 1.504 1.024.363.47.544 1.05.544 1.744 0 .981-.384 1.739-1.152 2.272-.757.523-1.866.784-3.328.784H34.11V50.8h5.472c1.366 0 2.41.261 3.136.784.736.523 1.104 1.232 1.104 2.128a2.69 2.69 0 0 1-.4 1.456 2.689 2.689 0 0 1-1.088 1.008Zm-5.648-3.424v2.64h2.576c.64 0 1.126-.112 1.456-.336.33-.224.496-.555.496-.992 0-.437-.165-.763-.496-.976-.33-.224-.816-.336-1.456-.336h-2.576Zm3.024 7.296c.683 0 1.195-.112 1.536-.336.352-.224.528-.57.528-1.04 0-.928-.688-1.392-2.064-1.392h-3.024v2.768h3.024Zm8.843-5.52c.298-.416.698-.73 1.2-.944.512-.213 1.098-.32 1.76-.32v2.304a9.034 9.034 0 0 0-.56-.032c-.715 0-1.275.203-1.68.608-.406.395-.608.992-.608 1.792V62h-2.496v-8.608h2.384v1.136Zm8.462 7.6c-.907 0-1.723-.187-2.448-.56a4.293 4.293 0 0 1-1.68-1.584c-.406-.672-.608-1.435-.608-2.288 0-.853.202-1.616.608-2.288a4.18 4.18 0 0 1 1.68-1.568c.725-.384 1.541-.576 2.448-.576.906 0 1.717.192 2.432.576a4.18 4.18 0 0 1 1.68 1.568c.405.672.608 1.435.608 2.288 0 .853-.203 1.616-.608 2.288a4.292 4.292 0 0 1-1.68 1.584c-.715.373-1.526.56-2.432.56Zm0-2.048c.64 0 1.162-.213 1.568-.64.416-.437.624-1.019.624-1.744 0-.725-.208-1.301-.624-1.728-.406-.437-.928-.656-1.568-.656s-1.168.219-1.584.656c-.416.427-.624 1.003-.624 1.728 0 .725.208 1.307.624 1.744.416.427.944.64 1.584.64Zm11.94 1.504c-.245.181-.55.32-.912.416a4.742 4.742 0 0 1-1.12.128c-1.024 0-1.819-.261-2.384-.784-.555-.523-.832-1.29-.832-2.304v-3.536h-1.328v-1.92h1.328v-2.096h2.496v2.096h2.144v1.92h-2.144v3.504c0 .363.09.645.272.848.192.192.459.288.8.288.395 0 .73-.107 1.008-.32l.672 1.76Zm6.633-8.32c1.067 0 1.925.32 2.576.96.662.64.992 1.59.992 2.848V62H76.66v-4.544c0-.683-.15-1.19-.448-1.52-.299-.341-.73-.512-1.296-.512-.63 0-1.13.197-1.504.592-.373.384-.56.96-.56 1.728V62h-2.496V50.128h2.496v4.16c.33-.33.73-.581 1.2-.752.47-.181.981-.272 1.536-.272Zm14.356 4.464c0 .032-.016.256-.048.672h-6.512c.118.533.395.955.832 1.264.438.31.982.464 1.632.464.448 0 .843-.064 1.184-.192.352-.139.678-.352.976-.64l1.328 1.44c-.81.928-1.994 1.392-3.552 1.392-.97 0-1.829-.187-2.576-.56-.746-.384-1.322-.912-1.728-1.584-.405-.672-.608-1.435-.608-2.288 0-.843.198-1.6.592-2.272a4.2 4.2 0 0 1 1.648-1.584c.704-.384 1.488-.576 2.352-.576.843 0 1.606.181 2.288.544a3.905 3.905 0 0 1 1.6 1.568c.395.672.592 1.456.592 2.352Zm-4.464-2.576c-.565 0-1.04.16-1.424.48-.384.32-.618.757-.704 1.312h4.24c-.085-.544-.32-.976-.704-1.296-.384-.33-.853-.496-1.408-.496Zm8.51-.624c.299-.416.699-.73 1.2-.944.512-.213 1.099-.32 1.76-.32v2.304a9.034 9.034 0 0 0-.56-.032c-.715 0-1.274.203-1.68.608-.405.395-.608.992-.608 1.792V62h-2.496v-8.608h2.384v1.136Z" fill="#FF9533"/></svg><svg fill="none" viewBox="0 0 18 12" id="menu" xmlns="http://www.w3.org/2000/svg"><path d="M0 12h6v-2H0v2ZM0 0v2h18V0H0Zm0 7h12V5H0v2Z" fill="#fff"/></svg><svg fill="none" viewBox="0 0 36 36" id="person" xmlns="http://www.w3.org/2000/svg"><g clip-path="url(#oa)"><path d="M18 18c3.315 0 6-2.685 6-6s-2.685-6-6-6-6 2.685-6 6 2.685 6 6 6Zm0 3c-4.005 0-12 2.01-12 6v3h24v-3c0-3.99-7.995-6-12-6Z" fill="#2D2D2D"/></g><defs><clipPath id="oa"><path fill="#fff" d="M0 0h36v36H0z"/></clipPath></defs></svg><svg fill="none" viewBox="0 0 24 25" id="review" xmlns="http://www.w3.org/2000/svg"><path d="M21.257 11.462c.474.62.474 1.457 0 2.076C19.764 15.487 16.182 19.5 12 19.5c-4.182 0-7.764-4.013-9.257-5.962a1.692 1.692 0 0 1 0-2.076C4.236 9.513 7.818 5.5 12 5.5c4.182 0 7.764 4.013 9.257 5.962v0Z" stroke="#8F8F8F" stroke-width="2" stroke-linecap="round" stroke-linejoin="round"/><path d="M12 15.5a3 3 0 1 0 0-6 3 3 0 0 0 0 6Z" stroke="#8F8F8F" stroke-width="2" stroke-linecap="round" stroke-linejoin="round"/></svg><svg fill="none" viewBox="0 0 27 27" id="search" xmlns="http://www.w3.org/2000/svg"><path d="M19.25 17h-1.185l-.42-.405A9.707 9.707 0 0 0 20 10.25 9.75 9.75 0 0 0 10.25.5 9.75 9.75 0 0 0 .5 10.25 9.75 9.75 0 0 0 10.25 20a9.707 9.707 0 0 0 6.345-2.355l.405.42v1.185l7.5 7.485 2.235-2.235L19.25 17Zm-9 0a6.741 6.741 0 0 1-6.75-6.75 6.741 6.741 0 0 1 6.75-6.75A6.741 6.741 0 0 1 17 10.25 6.741 6.741 0 0 1 10.25 17Z" fill="#fff"/></svg><svg fill="none" viewBox="0 0 36 36" id="shopping_cart" xmlns="http://www.w3.org/2000/svg"><g clip-path="url(#ra)"><path d="M10.5 27a2.996 2.996 0 0 0-2.985 3c0 1.65 1.335 3 2.985 3s3-1.35 3-3-1.35-3-3-3Zm-9-24v3h3l5.4 11.385-2.025 3.675A2.9 2.9 0 0 0 7.5 22.5c0 1.65 1.35 3 3 3h18v-3H11.13a.371.371 0 0 1-.375-.375l.045-.18 1.35-2.445h11.175a2.986 2.986 0 0 0 2.625-1.545l5.37-9.735c.12-.21.18-.465.18-.72 0-.825-.675-1.5-1.5-1.5H7.815l-1.41-3H1.5Zm24 24a2.996 2.996 0 0 0-2.985 3c0 1.65 1.335 3 2.985 3s3-1.35 3-3-1.35-3-3-3Z" fill="#2D2D2D"/><circle cx="29" cy="7" r="7" fill="#fff"/><path d="M31.867 10.39c.187 0 .334.054.441.161.112.103.168.24.168.413V12h-6.944v-.574a.974.974 0 0 1 .308-.714l3.073-3.08c.257-.261.485-.511.686-.749a4.7 4.7 0 0 0 .511-.707c.135-.233.238-.469.308-.707.075-.243.112-.497.112-.763a1.77 1.77 0 0 0-.105-.637 1.25 1.25 0 0 0-.301-.469 1.161 1.161 0 0 0-.462-.28 1.733 1.733 0 0 0-.602-.098c-.205 0-.397.03-.574.091a1.461 1.461 0 0 0-.462.245c-.135.103-.25.224-.343.364a1.6 1.6 0 0 0-.21.462c-.08.215-.182.357-.308.427s-.308.086-.546.049l-.91-.161c.07-.485.205-.91.406-1.274.2-.369.45-.674.749-.917a3.078 3.078 0 0 1 1.036-.553 4.094 4.094 0 0 1 1.26-.189c.467 0 .894.07 1.281.21.387.135.719.329.994.581.275.252.49.555.644.91.154.355.231.749.231 1.183 0 .373-.056.719-.168 1.036a4.09 4.09 0 0 1-.441.91c-.182.29-.397.57-.644.84s-.506.546-.777.826l-2.282 2.331c.22-.065.436-.114.651-.147.22-.037.427-.056.623-.056h2.597Z" fill="#3670C7"/></g><defs><clipPath id="ra"><path fill="#fff" d="M0 0h36v36H0z"/></clipPath></defs></svg></svg>